<svg width="133" height="121" viewBox="0 0 133 121" fill="none" xmlns="http://www.w3.org/2000/svg">
<g clip-path="url(#clip0_80_146)">
<path d="M66.3617 0.453949C30.1509 0.453949 0.694611 30.1222 0.694611 66.5936C0.694611 96.5126 24.8594 120.862 54.5751 120.862C84.2908 120.862 108.456 96.5231 108.456 66.5936H84.8822C84.8822 83.4289 71.2902 97.1188 54.5751 97.1188C37.86 97.1188 24.268 83.4289 24.268 66.5936C24.268 43.2164 43.1515 24.1969 66.3617 24.1969C89.5719 24.1969 108.456 43.2164 108.456 66.5936H132.029C132.019 30.1222 102.562 0.453949 66.3617 0.453949Z" fill="white"/>
<path d="M132.018 93.8165H108.445V117.559H132.018V93.8165Z" fill="white"/>
</g>
<defs>
<clipPath id="clip0_80_146">
<rect width="131.324" height="120.397" fill="white" transform="translate(0.694611 0.453949)"/>
</clipPath>
</defs>
</svg> 